<svg width="18" height="18" viewBox="0 0 18 18" fill="none" xmlns="http://www.w3.org/2000/svg">
<path fill-rule="evenodd" clip-rule="evenodd" d="M1.50008 0.666687C1.03984 0.666687 0.666748 1.03978 0.666748 1.50002V16.5C0.666748 16.9603 1.03984 17.3334 1.50008 17.3334H4.00008C4.46032 17.3334 4.83341 16.9603 4.83341 16.5V4.83335H8.16675V6.50002H7.33342C6.41294 6.50002 5.66675 7.24621 5.66675 8.16669V13.1667C5.66675 14.0872 6.41294 14.8334 7.33342 14.8334H15.6667C16.5872 14.8334 17.3334 14.0872 17.3334 13.1667V8.16669C17.3334 7.24621 16.5872 6.50002 15.6667 6.50002H14.8334V4.83335H16.5001C16.9603 4.83335 17.3334 4.46026 17.3334 4.00002V1.50002C17.3334 1.03978 16.9603 0.666687 16.5001 0.666687H1.50008ZM14.0001 3.16669H15.6667V2.33335H2.33341V15.6667H3.16675V4.00002C3.16675 3.53978 3.53984 3.16669 4.00008 3.16669H9.00008H14.0001ZM13.1667 4.83335V6.50002H9.83342V4.83335H13.1667ZM9.00008 13.1667H14.0001H15.6667V11.5V9.83335V8.16669H14.0001H9.00008H7.33342V9.83335V11.5V13.1667H9.00008Z" fill="#1C294D" fill-opacity="0.5"/>
</svg>
