<svg width="18" height="16" viewBox="0 0 18 16" fill="none" xmlns="http://www.w3.org/2000/svg">
<path fill-rule="evenodd" clip-rule="evenodd" d="M1.50008 0.5C1.03984 0.5 0.666748 0.873096 0.666748 1.33333C0.666748 1.79357 1.03984 2.16667 1.50008 2.16667V1.33333L1.50009 2.16667H1.50013H1.50026H1.50036H1.50048H1.50062H1.50079H1.50167H1.50289H1.50363H1.50403H1.50446H1.50636H1.5086H1.50921H1.50984H1.51117H1.54321H1.66284H2.073H2.50156L4.43747 10.6847C4.53729 11.1239 4.96702 11.4025 5.40595 11.3186C5.45668 11.3283 5.50904 11.3333 5.56258 11.3333H14.0001C14.3475 11.3333 14.6584 11.1179 14.7804 10.7926L17.2804 4.12594C17.3763 3.87002 17.3407 3.58332 17.185 3.35867C17.0293 3.13403 16.7734 3 16.5001 3H4.40012L3.97936 1.14865C3.89313 0.769242 3.55583 0.5 3.16675 0.5H2.073H1.66284H1.54321H1.53812H1.53334H1.53219H1.53106H1.52886H1.52469H1.51729H1.51645H1.51564H1.51484H1.51407H1.51331H1.51258H1.51117H1.50636H1.50446H1.50403H1.50363H1.50289H1.50079H1.50048H1.50036H1.50026H1.50013H1.50009L1.50008 1.33333V0.5ZM4.77891 4.66667L5.91527 9.66667H13.4226L15.2976 4.66667H4.77891ZM7.33342 12.1667C6.41294 12.1667 5.66675 12.9129 5.66675 13.8333C5.66675 14.7538 6.41294 15.5 7.33342 15.5C8.25389 15.5 9.00008 14.7538 9.00008 13.8333C9.00008 12.9129 8.25389 12.1667 7.33342 12.1667ZM10.6667 13.8333C10.6667 12.9129 11.4129 12.1667 12.3334 12.1667C13.2539 12.1667 14.0001 12.9129 14.0001 13.8333C14.0001 14.7538 13.2539 15.5 12.3334 15.5C11.4129 15.5 10.6667 14.7538 10.6667 13.8333Z" fill="#1C294D" fill-opacity="0.5"/>
</svg>
