<svg width="14" height="10" viewBox="0 0 14 10" fill="none" xmlns="http://www.w3.org/2000/svg">
<rect width="14" height="10" fill="#E5E5E5"/>
<g clip-path="url(#clip0_376_33)">
<rect width="1366" height="1654" transform="translate(-116 -136)" fill="#F9F9FA"/>
<rect x="-116" y="-85" width="1366" height="120" fill="white"/>
<path fill-rule="evenodd" clip-rule="evenodd" d="M0.333252 0.833333C0.333252 0.373096 0.706348 0 1.16659 0H12.8333C13.2935 0 13.6666 0.373096 13.6666 0.833333C13.6666 1.29357 13.2935 1.66667 12.8333 1.66667H1.16659C0.706348 1.66667 0.333252 1.29357 0.333252 0.833333ZM0.333252 5C0.333252 4.53976 0.706348 4.16667 1.16659 4.16667H8.66658C9.12682 4.16667 9.49992 4.53976 9.49992 5C9.49992 5.46024 9.12682 5.83333 8.66658 5.83333H1.16659C0.706348 5.83333 0.333252 5.46024 0.333252 5ZM1.16659 8.33333C0.706348 8.33333 0.333252 8.70643 0.333252 9.16667C0.333252 9.6269 0.706348 10 1.16659 10H12.8333C13.2935 10 13.6666 9.6269 13.6666 9.16667C13.6666 8.70643 13.2935 8.33333 12.8333 8.33333H1.16659Z" fill="#1C294D"/>
<path fill-rule="evenodd" clip-rule="evenodd" d="M0.333984 5.00002C0.333984 4.53978 0.70708 4.16669 1.16732 4.16669H8.66732C9.12755 4.16669 9.50065 4.53978 9.50065 5.00002C9.50065 5.46026 9.12755 5.83335 8.66732 5.83335H1.16732C0.70708 5.83335 0.333984 5.46026 0.333984 5.00002Z" fill="#FC6E1D"/>
</g>
<defs>
<clipPath id="clip0_376_33">
<rect width="1366" height="1654" fill="white" transform="translate(-116 -136)"/>
</clipPath>
</defs>
</svg>
