<svg width="18" height="18" viewBox="0 0 18 18" fill="none" xmlns="http://www.w3.org/2000/svg">
<path fill-rule="evenodd" clip-rule="evenodd" d="M12.8216 0.666687H5.17859C4.51555 0.666687 3.87967 0.930079 3.41083 1.39892L1.39898 3.41076C0.930141 3.87961 0.666748 4.51549 0.666748 5.17853V6.50002V14.8334C0.666748 16.2141 1.78604 17.3334 3.16675 17.3334H14.8334C16.2141 17.3334 17.3334 16.2141 17.3334 14.8334V6.50002V5.17853C17.3334 4.51549 17.07 3.87961 16.6012 3.41076L14.5893 1.39892C14.1205 0.93008 13.4846 0.666687 12.8216 0.666687ZM14.8334 4.00002L13.4108 2.57743C13.2545 2.42115 13.0426 2.33335 12.8216 2.33335H5.17859C4.95758 2.33335 4.74562 2.42115 4.58934 2.57743L3.16675 4.00002H14.8334ZM2.33341 6.50002V14.8334C2.33341 15.2936 2.70651 15.6667 3.16675 15.6667H14.8334C15.2937 15.6667 15.6667 15.2936 15.6667 14.8334V6.50002C15.6667 6.03978 15.2937 5.66669 14.8334 5.66669H3.16675C2.70651 5.66669 2.33341 6.03978 2.33341 6.50002ZM4.00008 13.1667C4.00008 12.7064 4.37318 12.3334 4.83342 12.3334H6.50008C6.96032 12.3334 7.33342 12.7064 7.33342 13.1667C7.33342 13.6269 6.96032 14 6.50008 14H4.83342C4.37318 14 4.00008 13.6269 4.00008 13.1667ZM4.83342 9.83335C4.37318 9.83335 4.00008 10.2064 4.00008 10.6667C4.00008 11.1269 4.37318 11.5 4.83342 11.5H8.16675C8.62699 11.5 9.00008 11.1269 9.00008 10.6667C9.00008 10.2064 8.62699 9.83335 8.16675 9.83335H4.83342Z" fill="#1C294D" fill-opacity="0.5"/>
</svg>
