<svg width="18" height="18" viewBox="0 0 18 18" fill="none" xmlns="http://www.w3.org/2000/svg">
<path fill-rule="evenodd" clip-rule="evenodd" d="M0.666584 6.91669C0.666584 10.3685 3.4648 13.1667 6.91658 13.1667C8.35962 13.1667 9.68843 12.6776 10.7463 11.8563C10.7862 11.9406 10.8409 12.0196 10.9107 12.0893L15.9107 17.0893C16.2361 17.4147 16.7637 17.4147 17.0892 17.0893C17.4146 16.7638 17.4146 16.2362 17.0892 15.9108L12.0892 10.9108C12.0195 10.841 11.9405 10.7863 11.8562 10.7464C12.6775 9.68853 13.1666 8.35972 13.1666 6.91669C13.1666 3.46491 10.3684 0.666687 6.91658 0.666687C3.4648 0.666687 0.666584 3.46491 0.666584 6.91669ZM2.33325 6.91669C2.33325 4.38538 4.38528 2.33335 6.91658 2.33335C9.44789 2.33335 11.4999 4.38538 11.4999 6.91669C11.4999 9.44799 9.44789 11.5 6.91658 11.5C4.38528 11.5 2.33325 9.44799 2.33325 6.91669Z" fill="white"/>
</svg>
