<svg width="18" height="14" viewBox="0 0 18 14" fill="none" xmlns="http://www.w3.org/2000/svg">
<path fill-rule="evenodd" clip-rule="evenodd" d="M3.16675 0.333313C1.78604 0.333313 0.666748 1.4526 0.666748 2.83331V11.1666C0.666748 12.5474 1.78604 13.6666 3.16675 13.6666H14.8334C16.2141 13.6666 17.3334 12.5474 17.3334 11.1666V2.83331C17.3334 1.4526 16.2141 0.333313 14.8334 0.333313H3.16675ZM2.40951 2.48493C2.54143 2.19867 2.83088 1.99998 3.16675 1.99998H14.8334C15.1693 1.99998 15.4587 2.19867 15.5907 2.48493L9.5117 7.213C9.21077 7.44706 8.78939 7.44706 8.48847 7.213L2.40951 2.48493ZM2.33341 4.53718V9.38744L5.34392 6.87869L2.33341 4.53718ZM2.4025 11.4994C2.53096 11.794 2.8248 12 3.16675 12H14.8334C15.1754 12 15.4692 11.794 15.5977 11.4994L11.3096 7.92604L10.5349 8.52859C9.63216 9.23075 8.36801 9.23075 7.46523 8.52859L6.69052 7.92604L2.4025 11.4994ZM15.6667 9.38744V4.53718L12.6562 6.87869L15.6667 9.38744Z" fill="#1C294D" fill-opacity="0.5"/>
</svg>
