<svg width="18" height="18" viewBox="0 0 18 18" fill="none" xmlns="http://www.w3.org/2000/svg">
<path fill-rule="evenodd" clip-rule="evenodd" d="M0.918315 0.918247C1.25374 0.582834 1.79756 0.582834 2.13299 0.918247L5.06401 3.8492C5.30849 3.7374 5.57334 3.66269 5.85119 3.63186L8.70867 3.31486C9.48651 3.22857 10.2614 3.50046 10.8148 4.05383L16.5787 9.81761C17.585 10.8238 17.585 12.4553 16.5787 13.4615L13.4615 16.5787C12.4552 17.5849 10.8237 17.5849 9.81748 16.5787L3.828 10.5893C3.22596 9.98732 2.96018 9.12677 3.11789 8.29011L3.60319 5.71552C3.648 5.47782 3.72483 5.25232 3.82894 5.04344L0.918315 2.13289C0.582893 1.79747 0.582893 1.25366 0.918315 0.918247ZM6.03967 7.25411L5.2164 6.43087L4.80597 8.60829C4.7534 8.88718 4.84199 9.17403 5.04267 9.3747L11.0322 15.364C11.3676 15.6994 11.9114 15.6994 12.2468 15.364L15.364 12.2469C15.6995 11.9115 15.6995 11.3677 15.364 11.0322L9.60013 5.26847C9.41566 5.08401 9.15736 4.99338 8.89808 5.02215L6.50273 5.28788L7.27452 6.05965C7.8896 5.88475 8.57865 6.03942 9.06291 6.52368C9.77445 7.2352 9.77445 8.3888 9.06291 9.10032C8.35137 9.81184 7.19774 9.81184 6.48621 9.10032C5.9867 8.60082 5.83785 7.88345 6.03967 7.25411Z" fill="#FF283D"/>
</svg>
