<svg width="18" height="18" viewBox="0 0 18 18" fill="none" xmlns="http://www.w3.org/2000/svg">
<path fill-rule="evenodd" clip-rule="evenodd" d="M0.666748 9.00002C0.666748 13.6024 4.39771 17.3334 9.00008 17.3334C13.6025 17.3334 17.3334 13.6024 17.3334 9.00002C17.3334 4.39765 13.6025 0.666687 9.00008 0.666687C4.39771 0.666687 0.666748 4.39765 0.666748 9.00002ZM2.33341 9.00002C2.33341 5.31812 5.31818 2.33335 9.00008 2.33335C12.682 2.33335 15.6667 5.31812 15.6667 9.00002C15.6667 12.6819 12.682 15.6667 9.00008 15.6667C5.31818 15.6667 2.33341 12.6819 2.33341 9.00002ZM6.50008 9.83335C6.50008 9.37312 6.12699 9.00002 5.66675 9.00002C5.20651 9.00002 4.83342 9.37312 4.83342 9.83335C4.83342 12.1345 6.6989 14 9.00008 14C11.3013 14 13.1667 12.1345 13.1667 9.83335C13.1667 9.37312 12.7937 9.00002 12.3334 9.00002C11.8732 9.00002 11.5001 9.37312 11.5001 9.83335C11.5001 11.2141 10.3808 12.3334 9.00008 12.3334C7.61937 12.3334 6.50008 11.2141 6.50008 9.83335ZM5.66675 7.33335C6.12699 7.33335 6.50008 6.96026 6.50008 6.50002C6.50008 6.96026 6.87318 7.33335 7.33342 7.33335C7.79365 7.33335 8.16675 6.96026 8.16675 6.50002C8.16675 5.57955 7.42056 4.83335 6.50008 4.83335C5.57961 4.83335 4.83342 5.57955 4.83342 6.50002C4.83342 6.96026 5.20651 7.33335 5.66675 7.33335ZM11.5001 6.50002C11.5001 6.96026 11.127 7.33335 10.6667 7.33335C10.2065 7.33335 9.83342 6.96026 9.83342 6.50002C9.83342 5.57955 10.5796 4.83335 11.5001 4.83335C12.4206 4.83335 13.1667 5.57955 13.1667 6.50002C13.1667 6.96026 12.7937 7.33335 12.3334 7.33335C11.8732 7.33335 11.5001 6.96026 11.5001 6.50002Z" fill="#1C294D" fill-opacity="0.5"/>
</svg>
