<svg width="18" height="18" viewBox="0 0 18 18" fill="none" xmlns="http://www.w3.org/2000/svg">
<path fill-rule="evenodd" clip-rule="evenodd" d="M4.24834 2.49738L4.2489 2.49808ZM4.28418 2.55365L5.95462 5.18577C5.75277 5.37528 5.53259 5.563 5.29563 5.76502C5.09197 5.93866 4.87591 6.12286 4.64844 6.32786C4.08463 6.83595 3.97573 7.65313 4.34062 8.28908C6.27016 11.652 8.90192 13.1822 10.0795 13.7316C10.7889 14.0626 11.5597 13.8014 11.9888 13.2605L13.1448 11.8034C13.1448 11.8034 13.1457 11.8026 13.1475 11.8023C13.1492 11.802 13.1524 11.8023 13.1524 11.8023C13.1524 11.8023 13.1549 11.8028 13.1573 11.8043C13.8309 12.216 14.7706 12.7755 15.6338 13.2491C15.4788 14.176 15.1227 14.7159 14.73 15.046C14.3177 15.3927 13.7845 15.5751 13.1898 15.6409C12.0024 15.7724 10.797 15.4157 10.5296 15.3288C10.2346 15.1794 8.61721 14.3363 6.88924 12.9701C5.10744 11.5612 3.32078 9.68369 2.63747 7.53031C2.13808 5.95654 2.32639 4.84909 2.71889 4.08519C3.09833 3.34672 3.71236 2.8455 4.28418 2.55365ZM3.6799 0.995857C4.46711 0.62611 5.2811 1.01162 5.66025 1.60905L7.40778 4.36263C7.76107 4.9193 7.78529 5.73308 7.21094 6.29055C6.96479 6.52946 6.62234 6.82311 6.30366 7.09636C6.12873 7.24635 5.96097 7.3902 5.82024 7.51548C7.4809 10.3791 9.7011 11.704 10.7109 12.1885L11.835 10.7715C12.3657 10.1025 13.3107 9.94612 14.0303 10.3859C14.6959 10.7928 15.6162 11.3404 16.4502 11.7976C17.0064 12.1026 17.4043 12.7384 17.2916 13.4561C17.0891 14.7453 16.5602 15.6843 15.8066 16.3178C15.0656 16.9408 14.1829 17.2051 13.3742 17.2947C11.7837 17.4708 10.2624 16.9939 9.98462 16.9017C9.91428 16.8784 9.85592 16.8538 9.79317 16.8222C9.49494 16.6722 7.73736 15.7646 5.85148 14.2735C3.98522 12.7979 1.88052 10.6634 1.04551 8.03198C0.43216 6.09906 0.613601 4.53181 1.23274 3.32684C1.84102 2.14299 2.8261 1.39688 3.6799 0.995857Z" fill="#1C294D" fill-opacity="0.5"/>
<path fill-rule="evenodd" clip-rule="evenodd" d="M11.2589 0.742698C10.8398 0.551069 10.3442 0.734258 10.1519 1.15186C9.95963 1.56946 10.1435 2.06334 10.5625 2.25497C12.5012 3.14152 14.7201 4.80829 15.7341 7.10832C15.9195 7.52898 16.412 7.72018 16.8342 7.53537C17.2563 7.35056 17.4481 6.85973 17.2627 6.43906C16.0241 3.62957 13.4062 1.72466 11.2589 0.742698ZM10.6408 3.69421C10.2284 3.48873 9.72694 3.6553 9.52075 4.06627C9.31455 4.47723 9.48171 4.97696 9.89409 5.18244C10.6786 5.57332 11.2215 5.94167 11.6598 6.37851C12.0982 6.81535 12.4678 7.3564 12.8601 8.13816C13.0662 8.54913 13.5677 8.7157 13.9801 8.51022C14.3925 8.30474 14.5596 7.80501 14.3534 7.39405C13.9108 6.51192 13.4456 5.80505 12.8405 5.20196C12.2353 4.59887 11.526 4.13527 10.6408 3.69421Z" fill="#1C294D" fill-opacity="0.5"/>
</svg>
