<svg width="10" height="18" viewBox="0 0 10 18" fill="none" xmlns="http://www.w3.org/2000/svg">
<path fill-rule="evenodd" clip-rule="evenodd" d="M1.66667 3.1815C1.66667 2.71853 2.03976 2.34323 2.5 2.34323H7.5C7.96024 2.34323 8.33333 2.71853 8.33333 3.1815V15.2336C8.33333 15.5964 7.90607 15.7879 7.63793 15.5451L5.55747 13.6616C5.24055 13.3747 4.75945 13.3747 4.44253 13.6616L2.36207 15.5451C2.09393 15.7879 1.66667 15.5964 1.66667 15.2336V3.1815ZM2.5 0.666687H7.5C8.88071 0.666687 10 1.79261 10 3.1815V15.2336C10 17.0479 7.86366 18.005 6.52299 16.7913L5 15.4125L3.47701 16.7913C2.13633 18.005 0 17.0479 0 15.2336V3.1815C0 1.79261 1.11929 0.666687 2.5 0.666687Z" fill="#1C294D" fill-opacity="0.5"/>
</svg>
